ffmpeg started on 2016-12-06 at 18:01:39
Report written to "Output/x264/results/ffmpeg/crowd_run_2160p50medium3500k.log"
Command line:
Tools/ffmpeg/ffmpeg -benchmark -y -i Input/y4m/crowd_run_2160p50.y4m -c:v libx264 -preset medium -b:v 3500k -an Output/x264/encoded/crowd_run_2160p50medium3500k.mkv
ffmpeg version N-82227-gdb23fde Copyright (c) 2000-2016 the FFmpeg developers
  built with gcc 5.4.0 (Ubuntu 5.4.0-6ubuntu1~16.04.2) 20160609
  configuration: --prefix=/home/jaroslav/ffmpeg_build --pkg-config-flags=--static --extra-cflags=-I/home/jaroslav/ffmpeg_build/include --extra-ldflags=-L/home/jaroslav/ffmpeg_build/lib --bindir=/home/jaroslav/bin --enable-gpl --enable-libass --enable-libfdk-aac --enable-libfreetype --enable-libmp3lame --enable-libopus --enable-libtheora --enable-libvorbis --enable-libvpx --enable-libx264 --enable-libx265 --enable-nvenc --enable-libmfx --enable-libxvid --enable-libgsm --enable-libopencore-amrnb --enable-version3 --enable-nonfree
  libavutil      55. 35.100 / 55. 35.100
  libavcodec     57. 66.101 / 57. 66.101
  libavformat    57. 57.100 / 57. 57.100
  libavdevice    57.  2.100 / 57.  2.100
  libavfilter     6. 66.100 /  6. 66.100
  libswscale      4.  3.100 /  4.  3.100
  libswresample   2.  4.100 /  2.  4.100
  libpostproc    54.  2.100 / 54.  2.100
Input #0, yuv4mpegpipe, from 'Input/y4m/crowd_run_2160p50.y4m':
  Duration: 00:00:10.00, start: 0.000000, bitrate: 4976642 kb/s
    Stream #0:0: Video: rawvideo (I420 / 0x30323449), yuv420p(progressive), 3840x2160, SAR 1:1 DAR 16:9, 50 fps, 50 tbr, 50 tbn, 50 tbc
[libx264 @ 0x40581c0] using SAR=1/1
[libx264 @ 0x40581c0] using cpu capabilities: MMX2 SSE2Fast SSSE3 SSE4.2 AVX FMA3 AVX2 LZCNT BMI2
[libx264 @ 0x40581c0] profile High, level 5.2
[libx264 @ 0x40581c0] 264 - core 148 - H.264/MPEG-4 AVC codec - Copyleft 2003-2016 - http://www.videolan.org/x264.html - options: cabac=1 ref=3 deblock=1:0:0 analyse=0x3:0x113 me=hex subme=7 psy=1 psy_rd=1.00:0.00 mixed_ref=1 me_range=16 chroma_me=1 trellis=1 8x8dct=1 cqm=0 deadzone=21,11 fast_pskip=1 chroma_qp_offset=-2 threads=6 lookahead_threads=1 sliced_threads=0 nr=0 decimate=1 interlaced=0 bluray_compat=0 constrained_intra=0 bframes=3 b_pyramid=2 b_adapt=1 b_bias=0 direct=1 weightb=1 open_gop=0 weightp=2 keyint=250 keyint_min=25 scenecut=40 intra_refresh=0 rc_lookahead=40 rc=abr mbtree=1 bitrate=3500 ratetol=1.0 qcomp=0.60 qpmin=0 qpmax=69 qpstep=4 ip_ratio=1.40 aq=1:1.00
Output #0, matroska, to 'Output/x264/encoded/crowd_run_2160p50medium3500k.mkv':
  Metadata:
    encoder         : Lavf57.57.100
    Stream #0:0: Video: h264 (libx264) (H264 / 0x34363248), yuv420p, 3840x2160 [SAR 1:1 DAR 16:9], q=-1--1, 3500 kb/s, 50 fps, 1k tbn, 50 tbc
    Metadata:
      encoder         : Lavc57.66.101 libx264
    Side data:
      cpb: bitrate max/min/avg: 0/0/3500000 buffer size: 0 vbv_delay: -1
Stream mapping:
  Stream #0:0 -> #0:0 (rawvideo (native) -> h264 (libx264))
Press [q] to stop, [?] for help
frame=   19 fps=0.0 q=0.0 size=       0kB time=00:00:00.00 bitrate=N/A speed=   0x    frame=   33 fps= 25 q=0.0 size=       0kB time=00:00:00.00 bitrate=N/A speed=   0x    frame=   42 fps= 21 q=0.0 size=       0kB time=00:00:00.00 bitrate=N/A speed=   0x    frame=   47 fps= 11 q=0.0 size=       0kB time=00:00:00.00 bitrate=N/A speed=   0x    frame=   51 fps= 11 q=44.0 size=       1kB time=-00:00:00.03 bitrate=N/A speed=N/A    frame=   57 fps= 10 q=46.0 size=       1kB time=00:00:00.08 bitrate=  72.5kbits/s speed=0.0147x    frame=   65 fps= 11 q=59.0 size=       1kB time=00:00:00.24 bitrate=  24.4kbits/s speed=0.0393x    frame=   74 fps= 11 q=59.0 size=       1kB time=00:00:00.42 bitrate=  13.9kbits/s speed=0.0621x    frame=   82 fps= 11 q=59.0 size=       1kB time=00:00:00.58 bitrate=  10.1kbits/s speed=0.0795x    frame=   90 fps= 11 q=58.0 size=       1kB time=00:00:00.74 bitrate=   7.9kbits/s speed=0.0945x    frame=   97 fps= 12 q=58.0 size=       1kB time=00:00:00.88 bitrate=   6.7kbits/s speed=0.105x    frame=  105 fps= 11 q=58.0 size=       1kB time=00:00:01.04 bitrate=   5.6kbits/s speed=0.113x    frame=  114 fps= 12 q=57.0 size=       1kB time=00:00:01.22 bitrate=   4.8kbits/s speed=0.125x    frame=  121 fps= 12 q=57.0 size=       1kB time=00:00:01.36 bitrate=   4.3kbits/s speed=0.133x    frame=  129 fps= 12 q=57.0 size=       1kB time=00:00:01.52 bitrate=   3.9kbits/s speed=0.141x    frame=  136 fps= 12 q=57.0 size=       1kB time=00:00:01.66 bitrate=   3.5kbits/s speed=0.147x    frame=  144 fps= 12 q=56.0 size=       1kB time=00:00:01.82 bitrate=   3.2kbits/s speed=0.152x    frame=  151 fps= 12 q=56.0 size=       1kB time=00:00:01.96 bitrate=   3.0kbits/s speed=0.157x    frame=  159 fps= 12 q=56.0 size=       1kB time=00:00:02.12 bitrate=   2.8kbits/s speed=0.163x    frame=  166 fps= 12 q=56.0 size=       1kB time=00:00:02.26 bitrate=   2.6kbits/s speed=0.167x    frame=  174 fps= 12 q=56.0 size=       1kB time=00:00:02.42 bitrate=   2.4kbits/s speed=0.171x    frame=  182 fps= 12 q=56.0 size=       1kB time=00:00:02.58 bitrate=   2.3kbits/s speed=0.175x    frame=  190 fps= 12 q=56.0 size=       1kB time=00:00:02.74 bitrate=   2.1kbits/s speed=0.179x    frame=  198 fps= 12 q=56.0 size=       1kB time=00:00:02.90 bitrate=   2.0kbits/s speed=0.182x    frame=  206 fps= 12 q=56.0 size=       1kB time=00:00:03.06 bitrate=   1.9kbits/s speed=0.185x    frame=  214 fps= 12 q=55.0 size=       1kB time=00:00:03.22 bitrate=   1.8kbits/s speed=0.188x    frame=  220 fps= 12 q=55.0 size=       1kB time=00:00:03.34 bitrate=   1.8kbits/s speed=0.189x    frame=  228 fps= 13 q=55.0 size=       1kB time=00:00:03.50 bitrate=   1.7kbits/s speed=0.192x    frame=  235 fps= 13 q=55.0 size=       1kB time=00:00:03.64 bitrate=   1.6kbits/s speed=0.194x    frame=  242 fps= 13 q=55.0 size=       1kB time=00:00:03.78 bitrate=   1.6kbits/s speed=0.196x    frame=  250 fps= 13 q=55.0 size=       1kB time=00:00:03.94 bitrate=   1.5kbits/s speed=0.199x    frame=  256 fps= 13 q=55.0 size=       1kB time=00:00:04.06 bitrate=   1.4kbits/s speed=0.199x    frame=  261 fps= 12 q=55.0 size=       1kB time=00:00:04.16 bitrate=   1.4kbits/s speed=0.198x    frame=  270 fps= 13 q=55.0 size=       1kB time=00:00:04.34 bitrate=   1.4kbits/s speed=0.201x    frame=  277 fps= 13 q=55.0 size=       1kB time=00:00:04.48 bitrate=   1.3kbits/s speed=0.203x    frame=  282 fps= 12 q=55.0 size=       1kB time=00:00:04.58 bitrate=   1.3kbits/s speed=0.203x    frame=  290 fps= 13 q=55.0 size=       1kB time=00:00:04.74 bitrate=   1.2kbits/s speed=0.205x    frame=  297 fps= 12 q=56.0 size=       1kB time=00:00:04.88 bitrate=   1.2kbits/s speed=0.198x    frame=  306 fps= 12 q=56.0 size=    2197kB time=00:00:05.06 bitrate=3555.6kbits/s speed=0.201x    frame=  312 fps= 12 q=56.0 size=    2197kB time=00:00:05.18 bitrate=3473.2kbits/s speed=0.202x    frame=  319 fps= 12 q=56.0 size=    2197kB time=00:00:05.32 bitrate=3381.8kbits/s speed=0.203x    frame=  328 fps= 12 q=56.0 size=    2197kB time=00:00:05.50 bitrate=3271.2kbits/s speed=0.205x    frame=  335 fps= 12 q=56.0 size=    2197kB time=00:00:05.64 bitrate=3190.0kbits/s speed=0.206x    frame=  343 fps= 12 q=56.0 size=    2197kB time=00:00:05.80 bitrate=3102.0kbits/s speed=0.207x    frame=  351 fps= 12 q=56.0 size=    2197kB time=00:00:05.96 bitrate=3018.7kbits/s speed=0.209x    frame=  359 fps= 12 q=56.0 size=    2197kB time=00:00:06.12 bitrate=2939.8kbits/s speed=0.21x    frame=  366 fps= 12 q=56.0 size=    2197kB time=00:00:06.26 bitrate=2874.1kbits/s speed=0.211x    frame=  368 fps= 12 q=56.0 size=    2197kB time=00:00:06.30 bitrate=2855.9kbits/s speed=0.209x    frame=  375 fps= 12 q=56.0 size=    2197kB time=00:00:06.44 bitrate=2793.8kbits/s speed=0.21x    frame=  383 fps= 12 q=56.0 size=    2197kB time=00:00:06.60 bitrate=2726.1kbits/s speed=0.211x    frame=  391 fps= 12 q=56.0 size=    2197kB time=00:00:06.76 bitrate=2661.5kbits/s speed=0.213x    frame=  397 fps= 12 q=56.0 size=    2197kB time=00:00:06.88 bitrate=2615.1kbits/s speed=0.213x    frame=  403 fps= 12 q=56.0 size=    2197kB time=00:00:07.00 bitrate=2570.3kbits/s speed=0.213x    frame=  411 fps= 12 q=56.0 size=    2197kB time=00:00:07.16 bitrate=2512.9kbits/s speed=0.214x    frame=  417 fps= 12 q=56.0 size=    2197kB time=00:00:07.28 bitrate=2471.5kbits/s speed=0.214x    frame=  422 fps= 12 q=56.0 size=    2197kB time=00:00:07.38 bitrate=2438.0kbits/s speed=0.214x    frame=  429 fps= 12 q=56.0 size=    2197kB time=00:00:07.52 bitrate=2392.6kbits/s speed=0.215x    frame=  434 fps= 12 q=56.0 size=    2197kB time=00:00:07.62 bitrate=2361.2kbits/s speed=0.213x    frame=  440 fps= 12 q=56.0 size=    2197kB time=00:00:07.74 bitrate=2324.6kbits/s speed=0.213x    frame=  447 fps= 12 q=56.0 size=    2197kB time=00:00:07.88 bitrate=2283.3kbits/s speed=0.213x    frame=  455 fps= 12 q=56.0 size=    2197kB time=00:00:08.04 bitrate=2237.9kbits/s speed=0.214x    frame=  462 fps= 12 q=56.0 size=    2197kB time=00:00:08.18 bitrate=2199.6kbits/s speed=0.215x    frame=  469 fps= 12 q=56.0 size=    2197kB time=00:00:08.32 bitrate=2162.6kbits/s speed=0.216x    frame=  472 fps= 12 q=56.0 size=    2197kB time=00:00:08.38 bitrate=2147.1kbits/s speed=0.215x    frame=  480 fps= 12 q=56.0 size=    2197kB time=00:00:08.54 bitrate=2106.9kbits/s speed=0.215x    frame=  487 fps= 12 q=56.0 size=    2197kB time=00:00:08.68 bitrate=2072.9kbits/s speed=0.215x    frame=  493 fps= 12 q=56.0 size=    2197kB time=00:00:08.80 bitrate=2044.6kbits/s speed=0.214x    frame=  500 fps= 12 q=56.0 size=    2197kB time=00:00:08.94 bitrate=2012.6kbits/s speed=0.214x    frame=  500 fps= 11 q=-1.0 Lsize=    4445kB time=00:00:09.94 bitrate=3662.8kbits/s speed=0.223x    
video:4440kB audio:0kB subtitle:0kB other streams:0kB global headers:0kB muxing overhead: 0.097823%
bench: utime=144.320s
bench: maxrss=1863024kB
[libx264 @ 0x40581c0] frame I:2     Avg QP:44.45  size:119390
[libx264 @ 0x40581c0] frame P:126   Avg QP:50.86  size: 19444
[libx264 @ 0x40581c0] frame B:372   Avg QP:50.89  size:  4993
[libx264 @ 0x40581c0] consecutive B-frames:  0.8%  0.0%  0.0% 99.2%
[libx264 @ 0x40581c0] mb I  I16..4: 25.3% 70.4%  4.3%
[libx264 @ 0x40581c0] mb P  I16..4:  6.5%  1.9%  0.0%  P16..4: 18.1%  1.4%  2.3%  0.0%  0.0%    skip:69.8%
[libx264 @ 0x40581c0] mb B  I16..4:  0.0%  0.0%  0.0%  B16..8: 14.4%  0.1%  0.0%  direct: 0.2%  skip:85.3%  L0:38.0% L1:62.0% BI: 0.0%
[libx264 @ 0x40581c0] final ratefactor: 47.80
[libx264 @ 0x40581c0] 8x8 transform intra:30.4% inter:98.4%
[libx264 @ 0x40581c0] coded y,uvDC,uvAC intra: 7.5% 42.1% 2.6% inter: 0.7% 2.3% 0.0%
[libx264 @ 0x40581c0] i16 v,h,dc,p: 55% 25% 12%  9%
[libx264 @ 0x40581c0] i8 v,h,dc,ddl,ddr,vr,hd,vl,hu: 20%  8% 45%  5%  4%  5%  5%  5%  3%
[libx264 @ 0x40581c0] i4 v,h,dc,ddl,ddr,vr,hd,vl,hu: 26% 19% 13% 10%  8%  8%  6%  6%  5%
[libx264 @ 0x40581c0] i8c dc,h,v,p: 94%  2%  3%  0%
[libx264 @ 0x40581c0] Weighted P-Frames: Y:1.6% UV:0.8%
[libx264 @ 0x40581c0] ref P L0: 69.2%  1.0% 20.8%  8.8%  0.2%
[libx264 @ 0x40581c0] ref B L0: 94.7%  3.4%  1.9%
[libx264 @ 0x40581c0] ref B L1: 98.4%  1.6%
[libx264 @ 0x40581c0] kb/s:3637.04
